<?xml version="1.0" encoding="UTF-8" standalone="no"?><!DOCTYPE svg PUBLIC "-//W3C//DTD SVG 1.1//EN" "http://www.w3.org/Graphics/SVG/1.1/DTD/svg11.dtd"><svg width="100%" height="100%" viewBox="0 0 1080 1080" version="1.1" xmlns="http://www.w3.org/2000/svg" xmlns:xlink="http://www.w3.org/1999/xlink" xml:space="preserve" xmlns:serif="http://www.serif.com/" style="fill-rule:evenodd;clip-rule:evenodd;stroke-linejoin:round;stroke-miterlimit:2;"><rect x="0" y="0" width="1080" height="1080"/><g><path d="M483.838,195.342c-1.484,1.59 -2.756,3.71 -2.756,4.664c0,0.954 -0.848,2.544 -1.908,3.604c-1.166,1.06 -2.756,3.286 -3.604,5.088c-5.3,10.495 -7.42,14.099 -15.371,26.82c-8.162,12.932 -11.66,17.808 -22.367,30.847c-8.692,10.494 -10.494,12.614 -16.643,19.187c-3.498,3.816 -8.48,9.54 -11.13,12.614c-2.65,3.181 -5.618,6.573 -6.784,7.421c-1.06,0.954 -4.559,4.77 -7.739,8.586c-13.78,16.219 -62.967,64.239 -78.337,76.43c-2.12,1.696 -4.453,3.71 -5.089,4.558c-0.636,0.848 -3.074,2.65 -5.406,4.134c-2.332,1.378 -5.936,4.24 -7.95,6.254c-2.12,2.014 -5.936,5.088 -8.481,6.785c-2.65,1.59 -6.572,4.558 -8.798,6.466c-4.876,4.346 -16.855,12.296 -25.547,17.067c-3.604,2.014 -7.42,4.452 -8.587,5.512c-4.664,4.134 -10.494,3.498 -9.328,-1.06c0.636,-2.438 -1.59,-2.862 -2.438,-0.53c-0.424,0.848 -1.272,1.59 -2.12,1.59c-3.604,-0 -6.254,9.646 -3.392,12.508c3.604,3.605 15.794,-0.212 26.183,-8.056c2.12,-1.59 5.194,-3.604 6.996,-4.452c1.696,-0.848 4.982,-3.498 7.421,-5.936c2.332,-2.332 5.088,-4.559 6.042,-4.877c2.544,-1.06 14.628,-10.388 14.628,-11.448c0,-0.424 1.273,-1.378 2.969,-2.014c2.544,-1.06 10.176,-6.785 16.748,-12.615c1.272,-1.166 3.923,-3.18 5.831,-4.452c8.586,-5.936 51.836,-46.642 51.836,-48.762c-0,-0.53 0.848,-1.484 1.908,-2.014c2.438,-1.272 23.321,-21.943 37.314,-36.89c6.148,-6.572 11.448,-11.555 11.978,-11.024c0.424,0.424 -1.06,4.134 -3.392,8.162c-2.332,4.028 -7.314,13.781 -11.236,21.625c-10.389,21.201 -15.053,30.211 -35.83,69.433c-4.664,8.692 -10.282,19.717 -12.615,24.381c-2.226,4.664 -4.664,9.435 -5.3,10.601c-0.742,1.166 -3.074,5.3 -5.3,9.222c-2.226,3.922 -4.028,7.632 -4.028,8.162c-0,0.53 -1.696,3.393 -3.71,6.361c-2.014,2.968 -3.711,5.618 -3.711,6.042c0,0.318 -1.908,3.816 -4.24,7.738c-4.24,7.103 -10.388,13.463 -20.777,21.625c-7.208,5.619 -19.293,14.735 -22.049,16.643c-3.498,2.438 -14.84,11.025 -16.112,12.191c-0.636,0.53 -2.863,2.014 -4.983,3.18c-2.12,1.166 -3.922,2.438 -3.922,2.862c0,0.742 -6.572,6.042 -16.325,13.038c-7.314,5.301 -30.529,23.958 -36.147,29.046c-6.997,6.36 -11.131,12.084 -12.191,16.537c-1.06,4.982 2.438,9.01 7.845,9.01c4.452,-0 15.688,-2.65 20.777,-4.982c5.194,-2.332 27.031,-15.583 28.621,-17.279c0.318,-0.424 2.332,-2.014 4.558,-3.71c8.162,-6.148 21.837,-20.565 24.063,-25.335c1.166,-2.65 2.862,-4.877 3.604,-4.877c0.848,0 1.696,-0.742 2.12,-1.59c0.318,-0.848 1.272,-1.59 2.12,-1.59c0.849,0 2.333,-1.59 3.287,-3.498c0.848,-1.802 3.498,-5.512 5.83,-8.162c2.332,-2.65 4.24,-5.194 4.24,-5.619c0,-0.954 3.71,-6.148 9.647,-13.462c2.12,-2.65 4.77,-6.466 5.724,-8.481c1.908,-3.922 7.738,-10.6 9.328,-10.6c0.424,0 2.014,-1.378 3.498,-3.074c1.378,-1.696 4.029,-3.816 5.937,-4.664c1.908,-0.954 8.056,-5.831 13.568,-10.919c5.513,-4.982 11.661,-10.388 13.675,-11.872c2.014,-1.59 4.876,-4.029 6.466,-5.513c1.59,-1.484 6.148,-5.3 10.071,-8.48c7.102,-5.724 14.204,-11.979 24.275,-21.625c7.738,-7.314 8.586,-6.678 8.586,6.996c0,12.827 1.59,16.431 7.844,18.233c7.527,2.12 18.127,-5.406 28.092,-20.035l4.346,-6.36l0.318,4.77c0.106,2.65 0.636,6.678 1.272,9.011c0.53,2.332 1.166,5.512 1.59,7.102c1.484,7.42 10.283,5.618 20.035,-4.24l6.042,-6.043l2.65,3.181c1.378,1.696 2.545,3.71 2.545,4.346c-0,2.862 3.922,4.77 8.374,4.028c3.922,-0.636 4.982,-0.318 9.116,2.65c2.544,1.802 5.725,3.286 6.997,3.286c2.438,0 7.102,-2.756 15.052,-8.904c3.074,-2.226 4.347,-2.756 5.301,-1.802c2.862,2.862 8.162,0.636 8.162,-3.498c-0,-3.817 4.558,-11.979 9.646,-17.279c8.163,-8.481 11.449,-9.435 7.739,-2.226c-2.226,4.346 -4.346,11.766 -3.816,13.356c0.424,1.484 6.678,1.696 11.872,0.212c2.226,-0.636 5.936,-3.286 9.011,-6.36c4.876,-4.982 5.3,-5.194 7.102,-3.498c1.06,0.954 1.908,2.438 1.908,3.392c-0,0.954 1.802,5.194 3.922,9.328c3.18,6.149 4.452,7.739 6.36,7.739c2.226,-0 2.439,-0.424 2.439,-5.936l-0,-6.043l4.876,0.636c2.65,0.212 7.844,-0.106 11.342,-0.848c6.785,-1.378 8.163,-0.954 8.163,2.756c-0,0.848 1.59,3.074 3.498,4.983c4.664,4.558 9.222,4.452 18.657,-0.106c6.678,-3.287 7.42,-3.499 11.024,-2.227c3.286,1.167 4.982,1.061 9.753,-0.212c3.286,-0.742 6.042,-1.484 6.254,-1.484c0.106,0 0.954,1.908 1.696,4.241c0.742,2.226 2.438,5.194 3.71,6.36c2.226,2.12 2.65,2.12 5.936,0.742c2.014,-0.848 7.421,-5.088 12.085,-9.541l8.48,-8.056l3.71,3.392c2.015,1.908 4.029,4.028 4.559,4.664c2.12,3.393 9.116,0.318 9.116,-3.922c0,-2.226 -3.816,-6.678 -5.088,-5.936c-0.53,0.424 -2.014,-0.742 -3.286,-2.544c-1.272,-1.696 -3.286,-3.392 -4.558,-3.71c-3.287,-0.848 -10.177,2.226 -11.237,5.088c-1.272,3.286 -4.558,5.936 -5.088,4.24c-0.318,-0.954 -1.06,-0.954 -3.074,-0.106c-2.863,1.378 -4.665,0 -4.665,-3.498c0,-2.226 -3.498,-3.18 -7.208,-2.014c-1.59,0.53 -4.664,1.166 -6.89,1.484c-3.71,0.53 -4.134,0.318 -5.194,-2.65c-0.955,-2.862 -1.485,-3.074 -6.361,-3.074c-4.452,-0 -5.406,-0.318 -5.83,-2.12c-0.636,-2.544 -5.406,-5.301 -9.116,-5.301c-1.379,0 -4.771,1.696 -7.421,3.817c-4.876,3.816 -5.194,3.922 -18.657,4.982c-16.112,1.272 -17.172,0.848 -16.006,-5.512c1.166,-6.255 -0.212,-18.233 -2.226,-19.505c-1.909,-1.166 -7.315,1.802 -7.315,3.922c0,0.742 -2.544,3.604 -5.512,6.36c-3.074,2.756 -6.042,5.512 -6.678,6.148c-5.619,6.149 -9.329,9.223 -10.177,8.693c-0.636,-0.318 -0.848,-0.848 -0.53,-1.166c0.318,-0.318 0.106,-1.484 -0.53,-2.65c-0.848,-1.696 0.106,-4.665 5.406,-15.477c7.315,-14.947 15.159,-34.24 19.505,-47.808c1.59,-4.982 4.24,-11.661 5.937,-14.841c2.544,-5.088 2.968,-7.208 2.968,-14.735c0.106,-6.996 -0.212,-8.904 -1.59,-9.434c-2.651,-1.06 -6.997,1.06 -7.209,3.392c-0.212,2.438 -2.12,9.647 -4.24,16.431c-4.24,13.038 -10.07,29.893 -12.614,35.723c-3.711,8.905 -13.781,26.29 -18.551,32.12c-2.12,2.65 -5.301,6.996 -6.997,9.752c-3.074,4.983 -4.982,6.149 -6.36,4.029c-0.424,-0.636 -1.378,-0.53 -2.65,0.212c-1.59,1.06 -2.438,0.954 -4.346,-0.742c-1.272,-1.167 -2.65,-3.181 -3.18,-4.453c-1.484,-4.028 -5.089,-4.028 -12.085,-0.106c-3.498,2.014 -6.466,4.453 -6.678,5.407c-0.424,1.908 -10.177,15.582 -12.085,16.748c-0.424,0.318 -2.332,0.318 -4.028,0.106l-3.18,-0.424l0.636,-11.554c0.636,-12.827 -0,-14.099 -5.618,-11.343c-2.014,0.954 -3.287,2.65 -4.029,5.513c-0.742,2.544 -2.12,4.558 -3.498,5.194c-1.272,0.53 -2.756,2.544 -3.392,4.346c-1.272,4.134 -9.116,12.721 -10.07,11.236c-0.318,-0.53 -1.59,-1.06 -2.65,-1.06c-1.06,0 -2.333,-0.424 -2.651,-1.06c-0.848,-1.272 1.167,-8.904 3.817,-14.522c1.802,-3.816 2.014,-5.619 1.378,-13.993c-0.848,-11.024 -2.014,-13.038 -6.255,-10.282c-2.862,1.908 -3.074,2.332 -4.24,7.314c-0.318,1.696 -2.544,5.088 -4.77,7.526c-2.332,2.544 -4.24,4.983 -4.24,5.407c-0,1.59 -6.785,8.48 -8.163,8.162c-0.742,-0.212 -1.378,0.636 -1.378,1.908c0,1.166 -0.53,2.12 -1.166,2.12c-0.636,0 -2.968,1.272 -5.088,2.862c-5.194,4.028 -10.176,6.679 -12.19,6.679c-7.421,-0 0.106,-28.834 11.236,-42.932c9.222,-11.661 16.431,-21.519 19.717,-26.714c1.908,-2.968 4.134,-5.724 4.876,-5.936c1.272,-0.53 12.827,-18.657 17.279,-27.031c0.742,-1.378 2.226,-3.71 3.498,-5.194c1.166,-1.484 2.12,-3.393 2.12,-4.241c0,-0.848 1.484,-3.604 3.18,-6.148c1.802,-2.544 3.18,-4.982 3.18,-5.3c0,-0.424 1.379,-2.544 2.969,-4.664c1.696,-2.12 4.134,-6.573 5.406,-9.965c1.378,-3.286 2.862,-6.042 3.286,-6.042c1.272,-0 3.816,-5.406 5.83,-12.403c0.954,-3.286 2.756,-8.056 3.922,-10.6c1.697,-3.71 1.909,-4.876 0.848,-6.148c-0.742,-0.848 -1.908,-1.59 -2.544,-1.59c-2.12,-0 -7.844,6.572 -9.752,11.13c-1.59,3.922 -8.692,16.325 -9.965,17.491c-0.318,0.318 -2.014,2.862 -3.604,5.83c-1.696,2.862 -7.102,11.449 -12.19,18.869c-4.982,7.42 -10.389,15.901 -11.873,18.657c-1.59,2.862 -5.088,8.692 -7.844,12.932c-2.756,4.241 -5.406,8.693 -5.936,9.859c-0.53,1.272 -2.545,5.088 -4.665,8.586c-2.014,3.498 -5.406,9.647 -7.526,13.675c-5.512,10.6 -10.388,16.855 -25.653,32.649c-11.873,12.509 -18.339,18.445 -43.992,40.6c-17.173,14.841 -23.427,19.399 -24.487,17.597c-0.53,-0.742 6.466,-15.583 8.798,-18.657c0.424,-0.53 1.696,-3.498 2.756,-6.36c1.06,-2.968 2.544,-6.254 3.392,-7.42c0.742,-1.166 1.379,-2.863 1.379,-3.817c-0,-1.06 1.06,-2.756 2.438,-3.816c2.968,-2.438 5.512,-6.36 6.36,-10.07c0.424,-1.484 1.908,-4.134 3.286,-5.831c1.378,-1.696 4.452,-6.89 6.678,-11.448c2.332,-4.664 6.043,-11.873 8.375,-15.901c2.332,-4.134 5.194,-9.328 6.36,-11.66c1.06,-2.332 2.332,-4.346 2.756,-4.558c0.424,-0.212 1.06,-2.757 1.484,-5.619c0.424,-2.862 1.06,-5.194 1.59,-5.194c0.53,0 2.226,-2.438 3.816,-5.406c1.697,-3.074 3.817,-6.997 4.771,-8.799c0.954,-1.802 1.802,-4.134 1.908,-5.088c-0,-0.954 0.318,-1.908 0.848,-2.12c0.424,-0.212 2.014,-2.968 3.604,-6.148c6.254,-12.509 15.795,-30.106 18.763,-34.24c4.452,-6.36 8.374,-13.038 12.296,-20.353c1.802,-3.498 6.255,-10.388 9.859,-15.37c6.572,-9.011 9.752,-13.569 18.551,-26.608c2.65,-3.922 5.3,-7.42 5.936,-7.738c0.636,-0.424 1.166,-1.59 1.166,-2.65c0,-1.06 0.954,-2.756 2.014,-3.71c1.166,-1.06 2.862,-3.604 3.816,-5.725c1.06,-2.226 2.862,-5.618 4.24,-7.632c1.379,-2.014 2.757,-5.194 3.181,-6.996c0.53,-2.968 0.318,-3.498 -2.439,-4.452c-2.756,-0.954 -3.498,-0.742 -5.936,1.802Zm-3.604,119.573c-1.696,2.756 -4.24,7.208 -5.618,9.859c-3.074,5.83 -8.587,13.674 -9.647,13.78c-1.166,0 0.212,-3.286 2.969,-6.996c1.272,-1.696 3.074,-4.876 4.028,-6.89c3.392,-7.103 5.194,-9.965 7.844,-12.827c3.922,-4.24 4.134,-2.756 0.424,3.074Zm-110.457,94.026c0,0.318 -0.424,0.848 -1.06,1.166c-0.53,0.318 -1.06,0.106 -1.06,-0.424c-0,-0.636 0.53,-1.166 1.06,-1.166c0.636,0 1.06,0.212 1.06,0.424Zm160.915,15.053c0.318,4.982 0.106,5.618 -3.18,8.056c-6.148,4.665 -7.844,5.195 -10.812,3.817c-1.484,-0.636 -2.756,-1.484 -2.756,-1.908c-0,-0.318 2.968,-4.135 6.466,-8.269c7.844,-9.222 9.858,-9.54 10.282,-1.696Zm116.182,-0.848c1.378,0.742 -1.802,2.332 -4.877,2.332c-3.392,0 -3.71,-0.848 -1.166,-2.65c1.59,-1.272 3.393,-1.166 6.043,0.318Zm-342.714,89.68c-1.802,2.65 -3.286,5.194 -3.286,5.724c-0,0.53 -1.06,1.802 -2.226,2.969c-1.272,1.06 -3.71,4.134 -5.512,6.784c-5.301,7.738 -23.216,27.561 -30.53,33.921c-24.805,21.413 -48.02,33.392 -57.348,29.576c-2.333,-0.954 -2.863,-1.696 -2.333,-3.392c1.166,-3.711 13.781,-15.371 29.576,-27.244c1.908,-1.484 9.54,-7.42 17.067,-13.25c7.526,-5.831 15.9,-12.085 18.656,-13.781c2.757,-1.802 10.071,-6.996 16.325,-11.66c19.505,-14.629 22.155,-16.537 22.473,-15.477c0.212,0.636 -1.06,3.18 -2.862,5.83Z" style="fill:#fff;"/><g><path d="M788.805,493.556c-2.544,2.651 -5.406,9.117 -6.042,13.357c-0.53,3.498 -4.77,15.159 -5.936,16.537c-0.53,0.53 -0.954,2.014 -0.954,3.392c-0,2.65 -1.06,4.876 -5.512,11.342c-1.696,2.227 -2.969,4.559 -2.969,5.089c0,0.954 -9.646,15.794 -15.582,23.851c-10.919,14.734 -16.855,23.003 -18.339,25.229c-2.968,4.558 -13.569,18.127 -15.265,19.505c-0.954,0.742 -1.696,2.332 -1.696,3.498c0,1.166 -1.378,3.498 -3.18,5.3c-1.696,1.696 -3.18,3.498 -3.18,3.922c-0,0.318 -1.378,2.226 -3.074,4.135c-1.696,1.802 -3.392,4.346 -3.816,5.512c-0.318,1.166 -1.166,2.12 -1.697,2.12c-0.53,-0 -0.954,0.636 -0.954,1.378c0,1.272 -2.014,2.226 -10.812,5.194c-4.77,1.484 -5.194,1.484 -9.328,-0.636l-4.347,-2.12l0.212,-6.466c0.212,-5.406 -0.318,-7.209 -3.18,-12.509c-2.862,-4.982 -3.922,-6.042 -6.254,-6.042c-3.286,0.106 -6.572,2.226 -6.572,4.24c-0,1.272 -10.707,14.417 -13.145,16.113c-0.53,0.318 -2.12,0.212 -3.498,-0.318c-1.484,-0.53 -3.922,-0.954 -5.512,-0.954c-1.59,-0 -3.817,-0.848 -4.771,-2.014c-1.696,-1.802 -1.696,-2.332 0.424,-7.633c1.272,-3.18 5.089,-11.448 8.587,-18.55c3.392,-7.103 6.254,-13.145 6.254,-13.463c0,-0.318 1.59,-4.028 3.604,-8.374c2.014,-4.241 6.361,-14.629 9.647,-23.11c3.286,-8.48 6.89,-16.854 8.056,-18.656c1.06,-1.802 2.014,-3.817 2.014,-4.453c0,-2.862 5.618,-12.72 7.951,-13.992c1.378,-0.742 2.332,-1.802 2.014,-2.332c-0.318,-0.53 -0.106,-1.59 0.53,-2.332c0.954,-1.06 0.954,-2.863 0.106,-6.573c-0.636,-2.756 -0.954,-5.618 -0.636,-6.466c0.318,-0.742 -0.53,-2.65 -1.908,-4.24c-2.227,-2.544 -2.757,-2.756 -5.301,-1.59c-1.484,0.636 -2.756,1.802 -2.756,2.438c0,1.166 -0.318,2.014 -6.784,16.537c-2.12,4.77 -3.816,9.328 -3.816,10.176c-0,0.742 -0.848,3.286 -2.014,5.618c-1.06,2.226 -2.757,6.255 -3.605,8.905c-4.558,13.568 -31.695,72.189 -33.709,72.931c-0.53,0.212 -0.954,0.848 -0.954,1.484c-0,0.636 -1.272,2.756 -2.756,4.77c-2.438,3.18 -3.074,3.498 -6.573,2.862c-7.738,-1.272 -10.812,-2.65 -10.812,-4.77c-0,-1.166 0.742,-2.332 1.59,-2.65c0.848,-0.424 1.59,-1.166 1.59,-1.908c0,-0.636 1.484,-2.862 3.286,-4.77c3.074,-3.392 3.816,-5.618 5.83,-17.703c1.061,-6.148 -6.254,-7.844 -8.904,-2.014c-0.636,1.484 -1.696,2.65 -2.332,2.65c-0.53,0 -1.06,0.954 -1.06,2.014c-0,2.332 -7.526,17.491 -10.177,20.353c-0.954,1.06 -2.332,1.59 -3.074,1.272c-0.848,-0.212 -2.12,-0.106 -2.862,0.424c-0.742,0.424 -6.89,0.848 -13.568,0.954c-11.555,0.106 -18.339,1.06 -30.212,4.134c-17.491,4.453 -24.063,6.361 -30.741,8.481c-4.028,1.378 -8.799,2.756 -10.601,3.074c-1.696,0.318 -6.36,1.484 -10.282,2.544c-3.922,1.166 -7.633,1.696 -8.269,1.272c-0.848,-0.53 0,-3.074 2.545,-8.162c2.12,-4.135 3.816,-7.739 3.816,-7.951c-0,-0.318 2.544,-4.24 5.618,-8.798c2.968,-4.452 6.996,-10.389 8.692,-13.145c1.802,-2.65 5.195,-7.526 7.633,-10.706c2.332,-3.18 6.678,-9.223 9.54,-13.357c7.845,-11.554 16.643,-22.791 20.883,-26.819c2.12,-2.014 3.816,-4.24 3.816,-4.876c0,-0.636 1.166,-2.862 2.65,-4.982c3.499,-5.195 3.499,-8.905 -0.106,-9.753c-1.59,-0.424 -3.498,-0.212 -4.452,0.636c-4.24,3.074 -7.632,6.678 -7.632,7.844c-0,0.743 -2.968,5.407 -6.572,10.283c-3.711,4.876 -7.421,9.964 -8.269,11.342c-0.848,1.273 -2.438,3.499 -3.392,4.771c-1.06,1.378 -1.908,2.862 -1.908,3.286c-0,0.424 -2.756,4.664 -6.148,9.328c-6.043,8.269 -12.509,17.915 -16.325,24.063c-1.06,1.696 -3.922,5.619 -6.36,8.693c-2.544,3.18 -8.693,11.448 -13.781,18.339c-9.858,13.356 -14.099,18.444 -15.265,18.444c-1.272,0 -9.964,5.831 -9.964,6.573c-0,0.53 0.742,0.848 1.59,0.848c2.862,-0 1.696,2.756 -3.71,9.116c-6.361,7.421 -21.413,21.731 -22.155,20.989c-0.318,-0.212 0.106,-1.06 0.742,-1.696c0.742,-0.742 1.272,-2.014 1.272,-3.074c-0,-4.028 20.777,-38.586 27.667,-46.112c1.06,-1.166 2.014,-2.544 2.014,-2.968c0,-0.742 7.633,-9.965 13.039,-15.689c1.59,-1.696 2.862,-3.286 2.862,-3.604c-0,-0.212 1.696,-2.756 3.71,-5.618c2.014,-2.757 3.71,-5.619 3.71,-6.255c0,-0.636 0.636,-1.59 1.378,-2.014c0.742,-0.424 3.286,-3.18 5.513,-6.148c2.332,-2.862 4.982,-6.042 6.042,-6.89c0.954,-0.848 2.968,-4.029 4.558,-6.891c1.59,-2.968 3.286,-5.83 3.816,-6.466c2.332,-2.968 0.742,-11.025 -2.226,-11.025c-2.12,0 -7.42,5.725 -9.54,10.283c-1.272,2.756 -4.028,6.678 -5.937,8.692c-2.014,2.12 -4.558,5.937 -5.83,8.587c-1.272,2.65 -4.982,8.374 -8.268,12.72c-3.286,4.346 -7.103,9.647 -8.481,11.661c-1.378,2.014 -3.604,4.77 -4.876,6.148c-1.272,1.272 -3.71,4.346 -5.406,6.89c-1.696,2.439 -5.194,6.891 -7.844,9.859c-2.651,2.968 -10.389,12.296 -17.173,20.671c-6.785,8.374 -13.251,16.007 -14.311,17.067c-1.06,0.954 -3.604,3.71 -5.618,6.254c-2.014,2.544 -5.618,6.678 -8.056,9.328c-2.333,2.65 -4.559,5.619 -4.983,6.467c-0.318,0.848 -5.194,7.102 -10.812,13.78c-5.724,6.679 -13.569,16.643 -17.597,21.943c-4.028,5.406 -8.056,10.707 -9.01,11.661c-0.954,1.06 -4.453,5.512 -7.739,9.964c-16.749,22.685 -22.791,30 -32.861,40.388c-6.043,6.254 -13.039,12.827 -15.689,14.523c-6.36,4.24 -14.099,7.208 -14.947,5.724c-0.424,-0.53 -1.802,-1.59 -3.074,-2.332c-2.968,-1.484 -2.968,-2.756 -0.212,-11.025c3.498,-10.494 18.339,-34.345 34.028,-54.804c3.71,-4.876 7.632,-9.965 8.692,-11.555c1.166,-1.484 3.816,-4.664 5.936,-6.996c2.121,-2.438 6.149,-7.844 9.011,-12.191c2.862,-4.346 6.89,-9.752 9.01,-12.19c2.226,-2.332 5.088,-5.936 6.467,-7.95c1.378,-2.015 4.452,-6.043 6.784,-8.905c5.512,-6.678 16.113,-19.611 22.473,-27.455c2.862,-3.392 8.586,-10.071 12.932,-14.841c4.347,-4.77 8.587,-9.858 9.541,-11.448c0.954,-1.484 4.24,-5.725 7.208,-9.541c8.587,-10.494 19.717,-24.593 22.049,-27.879c1.166,-1.696 3.18,-4.346 4.558,-6.042c2.757,-3.392 7.633,-10.389 23.215,-33.922c5.937,-9.01 12.721,-18.763 14.947,-21.625c2.226,-2.968 5.088,-7.738 6.36,-10.706c1.909,-4.559 2.015,-6.043 1.06,-10.071c-1.166,-4.876 -4.982,-9.434 -8.056,-9.434c-1.908,0.106 -5.512,2.438 -5.512,3.604c-0,0.318 -3.922,5.406 -8.693,11.13c-4.876,5.831 -13.992,16.855 -20.458,24.594c-19.505,23.533 -29.152,33.709 -70.918,74.733c-1.802,1.802 -6.148,5.512 -9.646,8.374c-3.498,2.757 -6.572,5.407 -6.89,5.831c-1.166,1.484 -19.929,16.218 -24.912,19.505c-2.862,1.908 -7.526,4.558 -10.282,5.724c-4.558,1.908 -5.194,2.014 -5.936,0.53c-0.636,-1.06 -1.272,-1.272 -1.696,-0.53c-0.318,0.53 -1.484,0.848 -2.544,0.53c-2.863,-0.742 -7.315,1.378 -7.845,3.71c-0.424,1.484 0.318,3.074 2.226,4.876c2.65,2.544 3.18,2.65 9.117,1.802c10.812,-1.59 26.819,-11.978 50.988,-33.179c14.205,-12.403 60.105,-58.197 72.507,-72.296c15.901,-18.126 17.279,-19.822 23.533,-28.197c6.573,-8.798 10.071,-12.402 11.025,-11.342c0.848,0.848 -3.498,11.872 -6.042,15.582c-2.863,4.135 -7.209,11.131 -13.357,21.413c-1.802,3.075 -6.36,9.647 -10.07,14.523c-3.605,4.876 -8.057,10.813 -9.859,13.357c-1.696,2.438 -4.876,6.572 -6.996,9.116c-2.12,2.544 -4.346,5.724 -5.088,7.102c-0.849,1.59 -1.909,2.226 -2.969,1.908c-1.378,-0.53 -1.484,-0.424 -0.424,0.849c0.848,1.06 0.954,1.696 0.212,2.226c-1.06,0.53 -9.328,10.282 -23.427,27.561c-11.342,13.78 -13.038,16.007 -14.098,18.233c-0.636,1.378 -1.378,2.438 -1.802,2.438c-0.848,-0 -12.085,13.25 -17.173,20.247c-1.908,2.756 -6.785,9.116 -10.919,14.204c-17.809,22.261 -25.547,32.226 -29.681,38.162c-4.558,6.678 -6.36,9.011 -11.767,15.265c-1.802,2.12 -4.24,5.3 -5.3,6.996c-1.166,1.802 -4.028,5.83 -6.466,9.011c-6.89,9.116 -19.293,31.271 -22.049,39.751c-6.36,18.763 -0.106,25.866 17.173,19.399c3.392,-1.272 8.268,-3.71 10.918,-5.512c8.905,-6.148 30.742,-29.363 42.19,-45.158c10.389,-14.099 19.505,-25.971 25.123,-32.862c3.498,-4.24 9.117,-11.236 12.403,-15.582c20.777,-26.926 41.13,-49.611 41.13,-45.794c-0,1.06 -2.65,7.314 -5.407,12.826c-0.53,1.06 -0.954,3.286 -0.954,4.982c0,3.499 2.332,4.877 5.301,3.287c1.06,-0.636 3.286,-1.06 4.77,-1.06c4.028,-0 6.572,-1.697 8.586,-5.619c0.954,-1.908 4.452,-6.254 7.845,-9.858c3.286,-3.498 9.646,-11.025 14.204,-16.537c4.558,-5.618 9.435,-10.706 10.919,-11.342c3.392,-1.485 5.194,-0.212 3.816,2.65c-0.53,1.166 -1.166,5.618 -1.272,10.176c-0.318,8.905 1.06,12.297 5.83,14.417c4.24,2.014 13.781,1.59 18.551,-0.848c3.604,-1.908 4.24,-2.014 4.77,-0.53c1.06,2.544 7.42,5.088 11.131,4.346c1.802,-0.318 5.088,-2.014 7.314,-3.816c2.226,-1.696 4.452,-3.18 4.982,-3.18c1.802,-0 4.24,3.604 4.982,7.42c0.954,4.876 6.467,10.6 10.389,10.6c4.558,0 12.19,-4.346 19.929,-11.13c3.816,-3.392 7.102,-6.466 7.42,-6.89c0.318,-0.424 1.59,-1.272 2.968,-2.014c3.18,-1.697 4.028,0.636 2.332,6.678c-1.908,6.996 -1.166,10.6 2.333,11.024c4.876,0.53 11.872,-3.286 15.688,-8.692c1.908,-2.65 3.922,-4.876 4.346,-4.876c0.53,-0 2.227,-2.014 4.029,-4.558c1.696,-2.439 3.922,-5.407 5.088,-6.573c1.06,-1.166 4.876,-6.678 8.48,-12.19c9.435,-14.417 10.495,-15.583 12.085,-14.099c0.954,0.954 0.954,2.014 0.106,4.24c-1.59,4.028 -3.392,11.343 -4.452,17.703c-1.166,7.42 0.53,9.328 7.314,8.374c2.65,-0.318 6.042,-1.272 7.526,-2.12c2.65,-1.59 3.71,-2.862 11.767,-14.416c3.71,-5.195 4.664,-6.043 7.738,-6.043c6.572,0 7.632,4.029 2.862,11.131c-2.65,3.922 -5.406,12.508 -5.406,16.961c0,2.014 7.632,4.558 16.007,5.3c6.784,0.636 7.102,0.53 11.978,-3.18c4.771,-3.604 13.357,-12.297 20.777,-20.989l3.392,-3.922l9.965,-0c8.586,-0 9.964,0.212 9.964,1.802c0,0.954 -2.332,6.466 -5.3,12.19c-2.862,5.725 -5.3,11.343 -5.3,12.509c-0,1.06 -1.166,3.392 -2.65,5.088c-1.484,1.802 -2.65,3.922 -2.65,4.77c-0,0.954 -1.06,2.968 -2.439,4.664c-3.392,4.029 -7.42,12.721 -6.572,14.099c1.166,1.908 3.392,1.166 5.936,-2.332c1.379,-1.802 4.347,-5.406 6.573,-7.95c2.12,-2.65 3.922,-5.089 3.922,-5.513c-0,-0.53 1.908,-2.968 4.346,-5.512c2.332,-2.544 5.3,-6.572 6.466,-8.904c1.272,-2.332 3.287,-5.725 4.559,-7.421c1.272,-1.802 3.18,-5.618 4.24,-8.48c4.134,-11.449 9.434,-13.039 14.204,-4.24c3.499,6.36 8.587,9.54 16.961,10.6c5.3,0.636 11.131,1.908 22.367,4.771c5.619,1.484 12.509,1.272 15.901,-0.53c1.802,-0.955 3.498,-1.591 3.922,-1.591c2.12,0 5.936,-1.484 17.279,-6.89c1.484,-0.742 5.088,-1.908 7.95,-2.65c2.968,-0.848 7.209,-2.65 9.435,-4.028c3.286,-2.014 5.936,-2.65 11.766,-2.968c6.679,-0.212 8.375,0.106 13.887,2.862c7.632,3.71 9.752,3.816 16.113,0.424c2.756,-1.484 5.724,-2.65 6.572,-2.65c0.954,-0 2.12,-0.424 2.756,-0.954c2.014,-1.802 10.601,-4.241 16.855,-4.771c9.646,-0.742 17.491,-3.498 17.491,-5.936c-0,-2.12 -0.742,-2.438 -8.799,-3.71c-3.392,-0.53 -3.816,-0.954 -2.862,-2.226c1.06,-1.166 0.848,-1.484 -1.272,-1.484c-1.378,-0 -2.968,0.424 -3.604,1.06c-0.53,0.53 -3.18,1.272 -5.724,1.59c-2.651,0.318 -5.725,0.954 -6.891,1.484c-4.028,1.696 -11.66,3.498 -16.96,3.922c-23.428,2.014 -30.848,2.226 -33.074,0.848c-3.18,-2.014 -5.724,-1.908 -4.982,0.106c0.424,0.954 -0.106,1.908 -1.06,2.226c-2.438,0.954 -3.286,-0.212 -1.696,-2.226c1.166,-1.378 1.06,-1.484 -0.636,-0.954c-1.06,0.424 -2.544,1.378 -3.181,2.12c-1.59,2.014 -23.109,2.226 -27.137,0.318c-2.438,-1.06 -3.71,-1.06 -7.102,0.106c-2.332,0.742 -5.088,0.954 -6.148,0.53c-1.06,-0.424 -9.541,-0.954 -18.869,-1.166c-9.329,-0.212 -18.551,-0.636 -20.565,-1.06l-3.604,-0.53l0.636,-7.95c0.318,-4.452 1.166,-8.587 1.802,-9.435c0.636,-0.848 0.954,-2.438 0.53,-3.71c-0.424,-1.378 -0,-3.286 0.954,-4.77c0.954,-1.378 1.696,-3.18 1.696,-3.922c-0,-0.636 0.954,-2.226 2.014,-3.392c2.12,-2.332 3.18,-10.177 1.802,-13.463c-0.424,-1.06 -0.318,-2.12 0.318,-2.544c0.636,-0.318 1.166,-2.12 1.166,-3.816c0,-1.696 1.166,-6.042 2.65,-9.647c1.484,-3.604 2.65,-7.314 2.65,-8.162c0,-0.954 0.954,-2.332 2.121,-3.074c1.166,-0.742 2.12,-1.696 2.12,-2.226c-0,-0.53 1.06,-3.286 2.332,-6.149c1.272,-2.756 2.438,-5.618 2.438,-6.148c0.106,-0.636 0.848,-2.756 1.802,-4.77c0.954,-2.014 4.134,-9.434 7.102,-16.431c2.968,-6.996 6.785,-14.628 8.481,-17.067c2.65,-3.498 3.074,-4.982 2.544,-8.586c-0.318,-2.756 -0,-5.3 1.06,-7.42c3.816,-7.209 -2.12,-13.145 -7.527,-7.421Zm-26.819,74.628c-0.636,1.59 -1.696,4.346 -2.438,6.148c-0.742,1.696 -1.908,4.452 -2.544,6.042c-0.742,1.908 -2.12,2.968 -4.028,3.18c-3.392,0.425 -3.71,0.955 -6.678,12.509c-4.241,16.325 -4.665,17.491 -7.103,20.777c-1.272,1.802 -4.346,7.526 -6.784,12.721c-4.664,10.282 -6.36,12.084 -10.707,12.084c-1.59,0 -3.074,0.742 -3.498,1.59c-0.424,1.166 -2.226,1.59 -6.466,1.59c-6.572,0 -7.42,-1.272 -3.392,-5.088c1.378,-1.272 4.24,-5.83 6.572,-10.282c2.226,-4.347 4.452,-7.951 4.982,-7.951c0.424,0 2.12,-2.014 3.71,-4.452c6.573,-9.858 7.315,-10.706 16.537,-22.685c3.286,-4.24 6.043,-8.268 6.043,-8.904c-0,-0.53 0.318,-1.06 0.848,-1.06c0.954,-0 4.876,-6.573 4.664,-7.739c-0.106,-0.424 0.424,-0.742 1.272,-0.742c0.848,0 3.286,-2.438 5.512,-5.3c2.226,-2.968 4.134,-5.3 4.346,-5.3c0.106,-0 -0.212,1.272 -0.848,2.862Zm-178.088,61.271c1.166,1.166 0.636,2.65 -4.028,9.54c-2.968,4.452 -5.406,8.268 -5.406,8.48c-0,1.166 -10.601,15.689 -15.159,20.671c-8.798,9.753 -15.583,15.053 -17.279,13.675c-0.848,-0.636 -2.65,-0.848 -4.24,-0.53c-4.346,1.166 -5.724,-0.848 -5.724,-8.586c-0,-10.283 -4.028,-16.961 -7.951,-13.145c-1.59,1.484 -9.328,3.392 -10.176,2.438c-0.424,-0.424 -0.318,-3.498 0.318,-6.89c1.166,-6.573 0.212,-9.223 -3.392,-9.223c-2.438,0 -7.421,5.089 -7.421,7.527c0,0.954 -1.802,2.968 -3.922,4.346c-7.738,4.664 -20.671,10.494 -23.003,10.176c-2.014,-0.318 -2.226,-0.954 -2.014,-6.148c0.212,-8.798 1.378,-12.721 3.922,-13.675c1.166,-0.53 7.527,-2.226 13.887,-3.816c6.466,-1.59 15.477,-3.922 20.141,-5.3c12.084,-3.392 34.557,-8.798 44.522,-10.6c9.646,-1.697 24.593,-1.167 26.925,1.06Zm81.094,4.452c-0.742,3.286 -1.484,4.134 -3.922,4.346c-4.241,0.53 -4.665,-2.226 -1.272,-7.314c2.65,-4.029 2.968,-4.241 4.558,-2.756c1.272,1.378 1.484,2.544 0.636,5.724Zm-60.423,-0.848c2.226,0.53 4.558,1.484 5.194,2.12c0.742,0.742 -1.908,5.512 -8.374,15.159c-5.088,7.738 -10.389,15.264 -11.661,16.748c-1.378,1.484 -4.346,4.771 -6.678,7.421c-2.332,2.65 -4.452,4.452 -4.876,4.134c-0.318,-0.424 -0.848,-2.332 -1.272,-4.452c-0.424,-3.075 0.636,-6.043 7.314,-19.399c12.721,-25.335 11.237,-23.745 20.353,-21.731Zm30.317,9.858c4.347,0.53 3.923,3.816 -1.166,8.905c-4.134,4.24 -4.77,4.558 -5.936,2.968c-0.636,-0.954 -1.696,-1.378 -2.332,-0.954c-1.59,0.954 -1.484,-0.318 0.636,-6.467c1.802,-5.512 3.286,-7.208 5.088,-5.724c0.53,0.424 2.226,1.06 3.71,1.272Zm208.83,1.908c-0,0.53 -0.212,1.06 -0.424,1.06c-0.318,0 -0.848,-0.53 -1.166,-1.06c-0.318,-0.636 -0.106,-1.06 0.424,-1.06c0.636,0 1.166,0.424 1.166,1.06Zm-157.947,9.117c-0,0.848 -0.742,1.484 -1.59,1.484c-1.59,-0 -2.226,-2.226 -0.954,-3.498c1.06,-0.954 2.544,0.212 2.544,2.014Zm100.492,-0.636c7.103,0.53 17.809,1.06 23.639,1.166c5.831,0.212 10.813,0.636 11.131,1.166c0.848,1.378 -8.162,5.088 -12.721,5.088c-2.226,-0 -6.996,0.53 -10.6,1.166c-5.936,1.06 -6.996,0.954 -13.887,-1.696c-9.116,-3.498 -18.339,-5.936 -21.413,-5.936c-1.378,0.106 -2.438,-0.424 -2.438,-0.954c0,-1.272 9.329,-1.272 26.289,-0Zm-120.315,6.042c0.742,4.134 0.212,9.328 -0.954,9.222c-3.392,-0.424 -5.724,-2.014 -5.724,-3.816c-0,-2.014 4.028,-8.056 5.512,-8.162c0.318,-0.106 0.954,1.166 1.166,2.756Z" style="fill:#fff;"/><path d="M579.34,582.918c-2.65,2.545 -2.12,7.951 0.954,11.343c2.756,2.862 7.314,3.71 12.933,2.226c5.406,-1.484 3.18,-12.615 -2.863,-14.311c-4.664,-1.272 -9.328,-0.954 -11.024,0.742Z" style="fill:#fff;"/></g></g></svg>